<?xml version="1.0" encoding="utf-8" ?><svg xmlns="http://www.w3.org/2000/svg" xmlns:xlink="http://www.w3.org/1999/xlink" width="1024" height="1024" viewBox="0 0 1024 1024"><defs><linearGradient id="gradient_0" gradientUnits="userSpaceOnUse" x1="263.19714" y1="463.70312" x2="826.22083" y2="494.47076"><stop offset="0" stop-color="#AA41F6"/><stop offset="1" stop-color="#D370FF"/></linearGradient></defs><path fill="url(#gradient_0)" d="M513.051 178.189C517.85 185.428 527.769 206.045 532.052 214.407L568.618 285.875C610.247 366.693 651.206 447.854 691.489 529.351L774.593 695.618L800.842 748.432C804.648 756.163 810.753 767.756 813.82 775.415L814.199 776.277L813.774 776.751C811.505 776.448 796.28 770.522 792.525 769.21L719.141 743.143L572.774 691.288L536.441 678.02C528.789 675.268 518.816 672.06 511.662 668.602L505.812 670.865C452.516 691.173 398.375 710.032 344.983 730.096C319.335 739.734 291.531 749.097 266.246 759.187C259.058 761.801 251.506 764.879 244.323 767.204C237.349 769.718 230.391 772.274 223.449 774.874C219.933 776.191 216.375 777.844 212.766 778.699L212.135 778.305L212.253 777.651C213.547 775.851 217.711 766.866 218.885 764.434L232.875 735.461L282.433 634.99C338.046 522.521 394.415 410.428 451.537 298.719C464.93 272.06 478.517 245.499 492.297 219.037C494.118 215.499 505.44 192.772 507.164 190.718C508.955 186.398 511.503 182.463 513.051 178.189Z"/><path fill="#4B1781" d="M384.435 545.855L385.238 546.125C396.23 538.797 406.802 529.22 418.33 521.706C456.149 497.058 499.352 485.922 544.053 495.286C583.835 503.62 615.212 524.969 645.775 550.738C654.575 558.157 663.947 565.559 672.392 573.302C663.446 579.69 654.606 586.223 645.873 592.899C641.937 595.887 637.271 599.078 633.764 602.467C637.86 610.895 642.027 619.289 646.265 627.647C647.655 630.425 650.851 636.345 651.896 639.003C653.565 642.167 655.201 645.348 656.806 648.545C648.701 644.944 640.585 640.802 632.492 637.039C623.161 632.7 611.13 627.95 602.254 623.069L538.233 654.354C529.991 658.343 516.479 665.562 508.557 668.617C487.315 676.808 465.504 684.548 444.118 692.439L320.977 737.615C314.637 739.906 267.882 756.139 264.983 758.422L266.246 759.187C259.058 761.801 251.506 764.879 244.323 767.204C244.521 765.57 244.548 766.401 243.42 764.58C248.33 761.895 253.284 759.291 258.28 756.769C260.389 755.704 261.61 755.086 263.564 753.791C268.017 751.914 276.645 746.922 281.164 744.473L313.921 726.83L419.429 670.607L446.744 655.9C450.23 654.024 458.941 649.045 462.37 648.086L463.079 646.897C461.749 644.559 431.767 625.98 426.844 621.978C402.663 605.935 378.66 589.625 354.839 573.051C354.028 572.65 353.978 572.505 353.273 571.906C354.279 570.142 381.343 547.995 384.435 545.855Z"/><path fill="#0B031B" d="M462.37 648.086C461.478 649.776 364.866 701.178 354.617 706.409C350.784 708.144 336.537 715.516 333.144 717.875C329.845 719.421 314.246 727.398 311.703 729.361C304.912 733.318 297.706 736.81 291.073 740.652C280.066 747.027 270.642 752.275 259.018 757.657L258.28 756.769C260.389 755.704 261.61 755.086 263.564 753.791C268.017 751.914 276.645 746.922 281.164 744.473L313.921 726.83L419.429 670.607L446.744 655.9C450.23 654.024 458.941 649.045 462.37 648.086Z"/><path fill="#12052B" d="M354.839 573.051C356.812 572.792 358.171 573.88 360.066 575.163C372.105 583.309 384.125 591.974 396.16 600.111L417.907 614.68C420.296 616.269 426.647 619.342 426.844 621.978C402.663 605.935 378.66 589.625 354.839 573.051Z"/><path fill="#12052B" d="M243.42 764.58C248.33 761.895 253.284 759.291 258.28 756.769L259.018 757.657C257.058 758.96 253.214 760.592 252.75 762.813L253.218 761.97L253.1 762.134L254.107 762.785C255.275 762.335 264.345 758.775 264.983 758.422L266.246 759.187C259.058 761.801 251.506 764.879 244.323 767.204C244.521 765.57 244.548 766.401 243.42 764.58Z"/><path fill="#260C49" d="M333.144 717.875C331.128 719.561 314.552 728.362 311.703 729.361C314.246 727.398 329.845 719.421 333.144 717.875Z"/><path fill="#260C49" d="M354.617 706.409C352.496 708.162 336.106 716.842 333.144 717.875C336.537 715.516 350.784 708.144 354.617 706.409Z"/><path fill="#CB67FE" d="M454.98 577.323C452.082 566.573 455.021 551.892 460.504 542.093C468.082 528.423 480.858 518.391 495.935 514.271C511 510.131 528.99 511.921 542.62 519.732C544.549 520.059 546.843 521.659 548.055 523.059C551.523 525.657 554.107 527.26 557.294 530.507C574.64 548.18 577.586 581.222 560.075 600.01L559.327 599.629C558.364 600.662 556.447 602.577 555.747 603.686L555.73 604.442C548.98 612.983 536.286 618.946 525.904 621.358C510.161 624.915 493.65 622.043 480.033 613.38C466.595 604.795 458.465 592.757 454.98 577.323Z"/><path fill="#12052B" d="M454.98 577.323C452.082 566.573 455.021 551.892 460.504 542.093C468.082 528.423 480.858 518.391 495.935 514.271C511 510.131 528.99 511.921 542.62 519.732C544.549 520.059 546.843 521.659 548.055 523.059C551.523 525.657 554.107 527.26 557.294 530.507C574.64 548.18 577.586 581.222 560.075 600.01L559.327 599.629C585.189 565.057 564.157 520.757 522.779 514.207C493.083 509.505 464.003 525.851 456.571 555.736C454.884 562.518 455.078 568.613 455.879 575.483L454.98 577.323Z"/><path fill="#260C49" d="M542.62 519.732C544.549 520.059 546.843 521.659 548.055 523.059C546.221 521.987 544.409 520.878 542.62 519.732Z"/><path fill="#0B031B" d="M455.879 575.483C459.416 591.645 466.428 603.311 480.674 612.344C494.152 620.849 510.466 623.627 525.999 620.064C538.171 617.184 546.698 612.02 555.747 603.686L555.73 604.442C548.98 612.983 536.286 618.946 525.904 621.358C510.161 624.915 493.65 622.043 480.033 613.38C466.595 604.795 458.465 592.757 454.98 577.323L455.879 575.483Z"/><path fill="#922BDE" d="M214.727 776.739C218.887 768.604 223.35 758.603 227.441 750.189L258.353 687.007C262.907 677.756 271.106 659.785 276.249 651.446C276.504 656.572 254.89 694.092 252.406 702.32C250.509 708.604 251.688 714.35 250.031 719.912C246.537 731.644 255.819 740.893 254.582 752.809C254.421 754.364 252.916 756.692 252.213 758.352L252.478 758.662C254.594 757.638 261.928 753.499 263.238 753.474L263.564 753.791C261.61 755.086 260.389 755.704 258.28 756.769C253.284 759.291 248.33 761.895 243.42 764.58C236.437 768.22 222.151 774.611 214.727 776.739Z"/><path fill="#12052B" d="M264.983 758.422C267.882 756.139 314.637 739.906 320.977 737.615L444.118 692.439C465.504 684.548 487.315 676.808 508.557 668.617C516.479 665.562 529.991 658.343 538.233 654.354L602.254 623.069C611.13 627.95 623.161 632.7 632.492 637.039C640.585 640.802 648.701 644.944 656.806 648.545C655.201 645.348 653.565 642.167 651.896 639.003L653.1 638.696C655.26 642.986 657.52 647.224 659.876 651.409C654.288 648.362 646.212 644.89 640.279 642.133C627.51 636.26 614.78 630.299 602.092 624.251C599.667 625.449 598.202 626.186 595.893 627.694C595.472 629.177 595.046 629.125 593.559 629.889C569.652 642.173 545.031 653.117 521.142 665.408C519.882 666.056 520.074 668.713 519.582 669.902C590.382 696.919 663.412 721.11 734.797 746.878L787.604 765.771C794.158 768.118 808.126 772.723 813.82 775.415L814.199 776.277L813.774 776.751C811.505 776.448 796.28 770.522 792.525 769.21L719.141 743.143L572.774 691.288L536.441 678.02C528.789 675.268 518.816 672.06 511.662 668.602L505.812 670.865C452.516 691.173 398.375 710.032 344.983 730.096C319.335 739.734 291.531 749.097 266.246 759.187L264.983 758.422Z"/><path fill="#CB67FE" d="M595.893 627.694C595.472 629.177 595.046 629.125 593.559 629.889C569.652 642.173 545.031 653.117 521.142 665.408C519.882 666.056 520.074 668.713 519.582 669.902L512.962 667.729C520.107 664.933 530.02 659.647 537.183 656.216L595.893 627.694Z"/><path fill="#0B031B" d="M507.164 190.718C506.716 193.309 494.397 216.461 492.469 220.189C484.392 236.182 476.232 252.133 467.99 268.042C414.312 373.179 361.358 478.684 309.133 584.55C301.372 600.639 293.047 616.563 285.199 632.601C283.789 635.482 276.756 649.399 276.249 651.446C271.106 659.785 262.907 677.756 258.353 687.007L227.441 750.189C223.35 758.603 218.887 768.604 214.727 776.739C222.151 774.611 236.437 768.22 243.42 764.58C244.548 766.401 244.521 765.57 244.323 767.204C237.349 769.718 230.391 772.274 223.449 774.874C219.933 776.191 216.375 777.844 212.766 778.699L212.135 778.305L212.253 777.651C213.547 775.851 217.711 766.866 218.885 764.434L232.875 735.461L282.433 634.99C338.046 522.521 394.415 410.428 451.537 298.719C464.93 272.06 478.517 245.499 492.297 219.037C494.118 215.499 505.44 192.772 507.164 190.718Z"/><path fill="#0B031B" d="M384.435 545.855C427.611 510.272 468.258 486.549 526.797 491.498C572.789 495.386 610.421 519.551 644.833 548.398C653.855 555.96 665.451 565.166 673.952 573.253C662.049 582.286 647.022 593.963 634.798 602.417C641.108 614.401 646.945 626.627 653.1 638.696L651.896 639.003C650.851 636.345 647.655 630.425 646.265 627.647C642.027 619.289 637.86 610.895 633.764 602.467C637.271 599.078 641.937 595.887 645.873 592.899C654.606 586.223 663.446 579.69 672.392 573.302C663.947 565.559 654.575 558.157 645.775 550.738C615.212 524.969 583.835 503.62 544.053 495.286C499.352 485.922 456.149 497.058 418.33 521.706C406.802 529.22 396.23 538.797 385.238 546.125L384.435 545.855Z"/><path fill="#0B031B" d="M511.778 327.266C514.072 329.154 572.584 447.089 580.504 462.172C554.739 453.481 538.98 449.931 511.75 449.947C490.293 449.761 463.401 454.642 443.908 463.896C450.796 448.396 461.485 428.881 469.345 413.16L511.778 327.266Z"/><path fill="#4B1781" d="M511.862 330.316C513.392 331.733 573.595 450.402 577.795 459.907C560.98 455.098 547.133 450.453 529.174 449.356C523.771 449.026 518.981 449.357 513.624 449.211C491.469 449.268 466.863 451.566 446.596 461.345L485.682 383.034C494.135 365.901 502.915 346.944 511.862 330.316Z"/></svg>